<svg width="32" height="32" viewBox="0 0 32 32" xmlns="http://www.w3.org/2000/svg">
  <!-- Network icon -->
  <defs>
    <linearGradient id="netGrad" x1="0%" y1="0%" x2="100%" y2="100%">
      <stop offset="0%" style="stop-color:#808080;stop-opacity:1" />
      <stop offset="100%" style="stop-color:#404040;stop-opacity:1" />
    </linearGradient>
  </defs>

  <!-- Central computer -->
  <rect x="12" y="2" width="8" height="8" fill="url(#netGrad)" stroke="#000000" stroke-width="1" rx="1"/>
  <rect x="14" y="10" width="4" height="2" fill="#606060"/>

  <!-- Left computer -->
  <rect x="2" y="12" width="6" height="6" fill="url(#netGrad)" stroke="#000000" stroke-width="1" rx="1"/>
  <rect x="4" y="18" width="2" height="2" fill="#606060"/>

  <!-- Right computer -->
  <rect x="24" y="12" width="6" height="6" fill="url(#netGrad)" stroke="#000000" stroke-width="1" rx="1"/>
  <rect x="26" y="18" width="2" height="2" fill="#606060"/>

  <!-- Bottom computer -->
  <rect x="13" y="20" width="6" height="6" fill="url(#netGrad)" stroke="#000000" stroke-width="1" rx="1"/>
  <rect x="15" y="26" width="2" height="2" fill="#606060"/>

  <!-- Network lines -->
  <line x1="16" y1="12" x2="5" y2="15" stroke="#00ff00" stroke-width="1"/>
  <line x1="16" y1="12" x2="27" y2="15" stroke="#00ff00" stroke-width="1"/>
  <line x1="16" y1="12" x2="16" y2="20" stroke="#00ff00" stroke-width="1"/>

  <!-- Connection dots -->
  <circle cx="16" cy="12" r="1" fill="#ffff00"/>
  <circle cx="5" cy="15" r="1" fill="#ffff00"/>
  <circle cx="27" cy="15" r="1" fill="#ffff00"/>
  <circle cx="16" cy="20" r="1" fill="#ffff00"/>
</svg>